<svg xmlns="http://www.w3.org/2000/svg" viewBox="0 0 256 256" role="img" aria-label="Wasatch Public Strategy logo mark">
  <defs>
    <linearGradient id="sky" x1="0" y1="0" x2="1" y2="1">
      <stop offset="0" stop-color="#1c4f7c"/>
      <stop offset="1" stop-color="#6f8da8"/>
    </linearGradient>
    <linearGradient id="sunset" x1="0" y1="1" x2="1" y2="0">
      <stop offset="0" stop-color="#e7b35f"/>
      <stop offset="1" stop-color="#f4cf86"/>
    </linearGradient>
  </defs>
  <rect x="20" y="20" width="216" height="216" rx="52" fill="#f7fafc"/>
  <circle cx="128" cy="120" r="78" fill="url(#sky)"/>
  <path d="M52 129h152v58H52z" fill="url(#sunset)"/>
  <path d="M52 164h152v14H52z" fill="#0f2d4a"/>
  <path d="M56 166l26-28 18 18 30-42 20 23 15-15 35 44z" fill="#173a5d"/>
  <path d="M88 156l12-12 6 6 20-29 10 11 5-5 17 22H88z" fill="#f8fbff" opacity="0.96"/>
  <path d="M70 104l86 12 26-16-26 22-90-14z" fill="#ffffff" opacity="0.92"/>
  <path d="M154 78l37 10-41 4z" fill="#0f2d4a"/>
  <rect x="46" y="44" width="164" height="164" rx="42" fill="none" stroke="#0f2d4a" stroke-width="6"/>
</svg>
