<svg xmlns="http://www.w3.org/2000/svg" viewBox="0 0 256 256" role="img" aria-label="Wasatch Public Strategy logo mark">
  <defs>
    <linearGradient id="wsSky" x1="0" y1="0" x2="1" y2="1">
      <stop offset="0" stop-color="#84a7c4"/>
      <stop offset="1" stop-color="#d7e7f4"/>
    </linearGradient>
    <linearGradient id="wsSun" x1="0" y1="1" x2="1" y2="0">
      <stop offset="0" stop-color="#d99935"/>
      <stop offset="1" stop-color="#f2c57e"/>
    </linearGradient>
  </defs>
  <circle cx="128" cy="128" r="114" fill="#ffffff"/>
  <circle cx="128" cy="112" r="86" fill="url(#wsSky)"/>
  <path d="M42 128h172v64H42z" fill="url(#wsSun)"/>
  <path d="M36 162l40-32 20 8 35-35 16 17 12-8 31 21 30 29H36z" fill="#214a73"/>
  <path d="M71 141l12-8 12 7 35-32 12 11 8-5 17 13-96 14z" fill="#f8fbff" opacity="0.95"/>
  <path d="M40 162h176v18H40z" fill="#0f2d4a"/>
  <circle cx="128" cy="128" r="114" fill="none" stroke="#0f2d4a" stroke-width="8"/>
</svg>
